# xmcd
#
# Track frame offsets:
#	150
#	13015
#	27389
#	38813
#	57212
#	72107
#	85547
#	99623
#	110658
#	127194
#	140995
#	161837
#	174689
#	189122
#
# Disc length: 2682 seconds
# Revision: 0
# Processed by: cddbd v1.5.2PL0 Copyright (c) Steve Scherf et al.
# Submitted via: dBpowerAMP V12.0
#
DISCID=c30a780e
DTITLE=Joe Mullins and the Radio Ramblers - They're Playing My Song
DYEAR=2012
DGENRE=Country
TTITLE0=A Blue Million Tears
TTITLE1=Bottom of a Mountain
TTITLE2=Steel Guitar Rag
TTITLE3=Lily
TTITLE4=Some Kind of War
TTITLE5=When the Snow Falls on My Foggy Mountain Home
TTITLE6=Moses, Set My People Free
TTITLE7=She Left Me Standing on the Mountain
TTITLE8=Granddad (the Preacher)
TTITLE9=Cruisin' Timber
TTITLE10=Osborne Brothers Medley
TTITLE11=Our Old Kentucky Home
TTITLE12=Listen, They're Playing My Song
TTITLE13=Katy Daly
EXTD=
EXTT0=
EXTT1=
EXTT2=
EXTT3=
EXTT4=
EXTT5=
EXTT6=
EXTT7=
EXTT8=
EXTT9=
EXTT10=
EXTT11=
EXTT12=
EXTT13=
PLAYORDER=
